PathFileType	4	(X/Y/Z)	RBDS018\RBDS018runT45.trc
DataRate	CameraRate	NumFrames	NumMarkers	Units	OrigDataRate	OrigDataStartFrame	OrigNumFrames
150.000000	150.000000	4	33	mm	150.000000	1687	4500
Frame#	Time	L.ASIS			L.Heel.Bottom			L.Heel.Lateral			L.Heel.Top			L.Iliac.Crest			L.MT1			L.MT5			L.PSIS			L.Shank.Bottom.Lateral			L.Shank.Bottom.Medial			L.Shank.Top.Lateral			L.Shank.Top.Medial			L.Thigh.Bottom.Lateral			L.Thigh.Bottom.Medial			L.Thigh.Top.Lateral			L.Thigh.Top.Medial			R.ASIS			R.ASY			R.Heel.Bottom			R.Heel.Lateral			R.Heel.Top			R.Iliac.Crest			R.MT1			R.MT5			R.PSIS			R.Shank.Bottom.Lateral			R.Shank.Bottom.Medial			R.Shank.Top.Lateral			R.Shank.Top.Medial			R.Thigh.Bottom.Lateral			R.Thigh.Bottom.Medial			R.Thigh.Top.Lateral			R.Thigh.Top.Medial			
		X1	Y1	Z1	X2	Y2	Z2	X3	Y3	Z3	X4	Y4	Z4	X5	Y5	Z5	X6	Y6	Z6	X7	Y7	Z7	X8	Y8	Z8	X9	Y9	Z9	X10	Y10	Z10	X11	Y11	Z11	X12	Y12	Z12	X13	Y13	Z13	X14	Y14	Z14	X15	Y15	Z15	X16	Y16	Z16	X17	Y17	Z17	X18	Y18	Z18	X19	Y19	Z19	X20	Y20	Z20	X21	Y21	Z21	X22	Y22	Z22	X23	Y23	Z23	X24	Y24	Z24	X25	Y25	Z25	X26	Y26	Z26	X27	Y27	Z27	X28	Y28	Z28	X29	Y29	Z29	X30	Y30	Z30	X31	Y31	Z31	X32	Y32	Z32	X33	Y33	Z33	

1688	11.24666666666667	2207.739904146612	994.245383446597	913.9506355932008	2094.878679888705	37.19296419280822	1052.023609355287	2122.384234973985	41.9209747283736	1002.636979138415	2108.254754311201	85.7182960572695	1044.587659324123	2125.355034677137	1053.412255854231	884.1337767700531	2323.110345903153	38.49424077526469	1081.143415040359	2284.630287876705	39.67550773762212	968.2640144502301	2046.691478832671	1007.562687313715	1013.368747019751	2191.414264862834	172.6430321889341	951.3305949436566	2158.8089282487	191.193810529229	985.7662521213058	2202.913091429546	245.9863092588249	917.6659121548209	2172.165491444553	269.1220352981053	954.2654993446668	2242.917622263853	601.8384379226084	851.1501345410059	2196.341192892674	584.9027617984087	904.984108104034	2193.753698493924	698.6091624396444	837.8605692200374	2148.155187463898	681.6399809338828	887.6422239478666	2256.567671867689	972.2615679949049	1136.947215176315	55226351968.67805	-49365372.61027709	-18546197.16584285	1828.731677480637	741.4959297697141	1062.660612124298	1830.267143805479	717.11996430529	1101.541952785687	1861.593307481687	703.4605111424222	1063.246483789193	2205.372960384466	1047.953736547856	1182.710253810201	1708.346163169926	547.6332731272488	1042.575685215248	1730.05496633888	579.0135828830046	1148.072459385611	2073.100647484809	1003.891712543133	1119.063321556798	1937.443539495771	605.5519201608662	1135.130394572175	1956.154281048721	643.8438071322579	1099.202141946556	2014.074500012493	579.1727803504687	1144.590655282394	2031.284082035246	616.0297157666556	1108.590808094288	2211.747157199129	547.9045876400068	1169.535771678628	2150.425169383956	549.5275190954563	1132.342808119165	2196.443513998907	653.8206342328923	1197.539542225334	2135.948480963847	653.488144506356	1166.31707470941	
1689	11.25333333333333	2204.919808080964	988.7444209526951	912.4684259317631	2064.186582733132	35.96180106549627	1054.365421368049	2091.57265310058	42.33180808266038	1004.826930422604	2077.32778709371	84.88674820188416	1048.252156155493	2123.057631587817	1046.766571328184	883.583534576711	2292.372535406133	38.13577962435913	1083.0223650841	2253.940090370928	40.96236472026617	970.0010364916664	2044.20209560999	1005.033226450365	1014.010114091093	2165.21520044807	171.0624158498804	953.6200523559966	2133.033039849974	191.2579136808115	987.6741559573229	2179.967898173471	243.5833053826439	919.1437567650884	2149.915006657949	268.3092619617987	955.3868729356765	2230.376621364812	595.6577948207558	851.5923961513089	2184.434020513623	580.3294613123558	906.7024733684315	2183.178390925768	693.4404952737536	838.6167322685781	2138.237568600076	677.974866209286	889.6150542885356	2254.774480972229	966.921504357778	1136.258211886123	55361053472.26846	-49484521.27464769	-18591467.69599605	1846.067790480864	737.9040113882969	1065.51834119121	1848.38739418005	713.1950615309374	1104.318588434249	1879.553988849212	700.3597514335347	1065.526274015898	2202.526764200085	1042.465861000551	1183.364009860088	1728.447650015967	542.4820797441693	1044.656716189089	1750.584616985235	573.2199788387529	1150.196509768197	2071.103056574457	1000.736941992437	1119.254160678792	1957.693093977402	602.0135727875306	1137.505709850474	1976.574915296503	640.4938403232761	1101.894143517331	2034.345090482592	575.7084563006786	1147.462096124085	2051.758895088584	612.7360790413427	1111.793289282115	2228.429613203779	546.3550039289763	1173.652703070259	2166.619189392117	544.2480798690265	1137.482963922605	2208.096907395964	651.5514981847706	1200.717817467823	2147.019224368478	647.4243873008427	1170.987032640169	
1690	11.26	2201.982265120127	984.0276436125323	910.8561303018306	2033.575791108662	35.51536439618208	1056.238121402659	2060.839656850195	42.94251908439483	1006.554883112846	2046.571760298874	84.66516353255595	1050.9693191128	2120.755286453676	1041.403850713564	883.034771279392	2261.67179634921	38.26112470498887	1084.296623997232	2223.239925832501	41.96496990307305	971.3420148979612	2041.759482315958	1003.365737026355	1014.32872486799	2138.307774693361	170.0011928713918	955.4005828113268	2106.869214867842	191.7235805914382	989.3020653039453	2156.098499124898	241.6277045298894	920.3922080611114	2127.037252040411	267.8244449194108	956.5050845266603	2217.380008488557	590.1182264350632	852.0927258939009	2171.814585181229	576.4005375362194	908.1595914821751	2172.479767726602	689.0344234492969	839.4174652538791	2127.974003049242	675.1054281725898	891.3579115087563	2252.926561692214	962.5130057288565	1135.437475263982	55495973829.81396	-49603861.46800486	-18636811.8232283	1861.443866509676	732.6909108109429	1068.676268019835	1864.701064770438	707.6167321530909	1107.359358836665	1895.896808430513	695.9715962830163	1068.117231887023	2199.676065541258	1038.120071423158	1183.752518205946	1748.548932363623	534.9293940151352	1046.051431862596	1770.510525085684	564.8259103893428	1151.788177884659	2069.053738398356	998.567363239878	1119.215711662136	1977.045915646442	597.4889426586931	1139.893071871818	1995.76463646643	636.6286690712221	1105.073758273502	2053.921722873464	571.9934021667518	1150.468191399888	2071.201709861285	609.6533605390247	1115.633697548801	2245.671866466405	546.7335869242611	1177.623259208664	2183.675047904425	540.7415379667065	1142.36643749474	2220.049632579965	650.8765479886331	1203.797092023535	2158.677093872509	642.8138373970739	1175.44730730227	
1691	11.26666666666667	2199.047211790767	980.2220107313592	909.1629299561307	2003.028222420493	35.84943161325837	1057.574345991703	2030.188833318989	43.72329852210495	1007.758925425002	2016.009188397039	85.06325993423583	1052.679894811945	2118.508232798802	1037.512305438396	882.5154551574848	2231.018375789301	38.66695202427181	1085.020654314996	2192.544168313831	42.62908835556394	972.270278840638	2039.474183791835	1002.452467328835	1014.347916879996	2110.859279957323	169.4611594877851	956.5911597449531	2080.374416339565	192.5875116875919	990.4879774650346	2131.492535190436	240.1407612719201	921.290011628688	2103.599214876729	267.6819611215626	957.4185322525582	2204.08591685989	585.3099068057802	852.5592684245876	2158.595309789293	573.1795373500645	909.2099720358924	2161.828400200941	685.4536886757706	840.173831795997	2117.485734848922	673.0726267558568	892.7326659525679	2251.090176082287	959.2135463702857	1134.515342650912	55631113218.95985	-49723393.34413663	-18682229.60730857	1874.775159007683	725.7852642488145	1071.986775935394	1879.134906497932	700.3773672229124	1110.533637881644	1910.514335861618	690.2636589194199	1070.910761262469	2196.92551369117	1035.012819706465	1183.89781699925	1768.65999712295	525.0027848528963	1046.809678137227	1789.882977182554	553.9534750947066	1152.878634616429	2067.009789610939	997.3113943631474	1118.959345565424	1995.335283088732	592.0605461658774	1142.224498290342	2013.505798595579	632.3142291099305	1108.668556740202	2072.615133399145	568.1308825263988	1153.527602954884	2089.372886702987	606.8704778832323	1120.010849773704	2263.2083184354	549.1517116148869	1181.305026874098	2201.33574783527	539.1997325457478	1146.826486720354	2232.127719957217	651.9003590540547	1206.671122629924	2170.780525541413	639.8629057281031	1179.515038273151	
